<?xml version="1.0" encoding="utf-8"?>
<!-- Generator: Adobe Illustrator 24.3.0, SVG Export Plug-In . SVG Version: 6.00 Build 0)  -->
<svg version="1.1" id="Layer_1" xmlns="http://www.w3.org/2000/svg" xmlns:xlink="http://www.w3.org/1999/xlink" x="0px" y="0px"
	 viewBox="250 133 2000 2000" style="enable-background:new 0 0 2500 2000;" xml:space="preserve">
<style type="text/css">
	.st0{fill:#fff;}
</style>
<g>
	<g>
		<g>
			<path class="st0" d="M2165.42,1279.96c0,19.88-7.88,38.83-21.94,53.08c-28.7,28.14-77.47,28.32-105.79,0l-560.67-560.29
				c-14.26-14.07-21.94-33.01-21.94-53.09c0-19.88,7.88-38.83,22.13-52.9c14.07-14.26,32.83-21.95,52.9-21.95
				c19.88,0,38.64,7.88,52.9,21.95l560.29,560.29C2157.54,1241.32,2165.42,1260.07,2165.42,1279.96z"/>
		</g>
	</g>


	<g>
		<g>
			<path class="st0" d="M1044.84,1279.96c0,10.13-1.87,19.69-6,28.89c-3.57,9.19-9,17.26-16.13,24.2
				c-14.07,14.26-32.26,21.95-51.4,21.95c-21.01-0.19-40.33-7.88-54.4-21.95L356.43,772.75c-29.26-29.26-29.08-76.72,0.19-105.98
				c14.07-14.26,32.83-21.95,52.9-21.95c19.88,0,38.64,7.88,52.9,21.95l560.29,560.29
				C1036.96,1241.32,1044.84,1260.07,1044.84,1279.96z"/>
		</g>
	</g>
</g>
</svg>